# Simple cone mesh for the UFO abduction beam.
# Apex is at local Y = 0, base is at local Y = -4.
mtllib AbductionBeamCone.mtl
o AbductionBeamCone
v 0.0000 0.0000 0.0000
v 1.6000 -4.0000 0.0000
v 1.5688 -4.0000 0.3121
v 1.4782 -4.0000 0.6123
v 1.3304 -4.0000 0.8889
v 1.1314 -4.0000 1.1314
v 0.8889 -4.0000 1.3304
v 0.6123 -4.0000 1.4782
v 0.3121 -4.0000 1.5688
v 0.0000 -4.0000 1.6000
v -0.3121 -4.0000 1.5688
v -0.6123 -4.0000 1.4782
v -0.8889 -4.0000 1.3304
v -1.1314 -4.0000 1.1314
v -1.3304 -4.0000 0.8889
v -1.4782 -4.0000 0.6123
v -1.5688 -4.0000 0.3121
v -1.6000 -4.0000 0.0000
v -1.5688 -4.0000 -0.3121
v -1.4782 -4.0000 -0.6123
v -1.3304 -4.0000 -0.8889
v -1.1314 -4.0000 -1.1314
v -0.8889 -4.0000 -1.3304
v -0.6123 -4.0000 -1.4782
v -0.3121 -4.0000 -1.5688
v -0.0000 -4.0000 -1.6000
v 0.3121 -4.0000 -1.5688
v 0.6123 -4.0000 -1.4782
v 0.8889 -4.0000 -1.3304
v 1.1314 -4.0000 -1.1314
v 1.3304 -4.0000 -0.8889
v 1.4782 -4.0000 -0.6123
v 1.5688 -4.0000 -0.3121
v 0.0000 -4.0000 0.0000
usemtl AbductionBeamConeGlow
s 1
f 1 2 3
f 1 3 4
f 1 4 5
f 1 5 6
f 1 6 7
f 1 7 8
f 1 8 9
f 1 9 10
f 1 10 11
f 1 11 12
f 1 12 13
f 1 13 14
f 1 14 15
f 1 15 16
f 1 16 17
f 1 17 18
f 1 18 19
f 1 19 20
f 1 20 21
f 1 21 22
f 1 22 23
f 1 23 24
f 1 24 25
f 1 25 26
f 1 26 27
f 1 27 28
f 1 28 29
f 1 29 30
f 1 30 31
f 1 31 32
f 1 32 33
f 1 33 2
f 34 3 2
f 34 4 3
f 34 5 4
f 34 6 5
f 34 7 6
f 34 8 7
f 34 9 8
f 34 10 9
f 34 11 10
f 34 12 11
f 34 13 12
f 34 14 13
f 34 15 14
f 34 16 15
f 34 17 16
f 34 18 17
f 34 19 18
f 34 20 19
f 34 21 20
f 34 22 21
f 34 23 22
f 34 24 23
f 34 25 24
f 34 26 25
f 34 27 26
f 34 28 27
f 34 29 28
f 34 30 29
f 34 31 30
f 34 32 31
f 34 33 32
f 34 2 33
